<svg width="194" height="79" viewBox="0 0 194 79" fill="none" xmlns="http://www.w3.org/2000/svg">
<path fill-rule="evenodd" clip-rule="evenodd" d="M76.5036 0.374483C51.4016 1.15774 31.6265 4.07898 23.0368 8.27267C16.222 11.5991 13.8755 18.1671 10.0155 44.7164C7.25901 63.6694 8.52092 65.481 30.3889 73.9795C44.9901 79.6531 52.0874 80.2027 72.0719 77.2044C89.5692 74.579 104.431 74.579 121.928 77.2044C141.883 80.1974 149.003 79.6505 163.611 73.9996C177.766 68.5238 183.19 64.9559 184.581 60.2038C186.4 53.992 180.663 19.4124 176.83 13.4763C173.889 8.92378 169.063 6.73505 156.34 4.18575C138.306 0.572268 111.367 -0.713324 76.5036 0.374483ZM4.44648 15.2135C2.94082 15.6992 1.3277 16.5691 0.863484 17.1467C0.39816 17.7243 0.0103907 24.5679 0.000419475 32.3558C-0.0128755 44.0723 0.284045 46.7511 1.72433 47.8897C4.4919 50.0749 6.4806 49.5279 7.07223 46.4203C7.86771 42.2406 12.1299 18.4883 12.45 16.4465C12.7724 14.3908 8.86594 13.7887 4.44648 15.2135ZM181.383 14.9973C181.065 15.4034 181.249 17.0766 181.791 18.7167C182.334 20.3558 183.586 26.6201 184.573 32.6367C187.25 48.9538 187.332 49.2645 189.002 49.2645C189.845 49.2645 191.317 48.6458 192.276 47.8897C193.716 46.7511 194.013 44.0723 194 32.3558C193.99 24.5679 193.606 17.7295 193.145 17.158C191.407 14.9982 182.641 13.3879 181.383 14.9973Z" fill="#0F161E"/>
<path d="M26.627 21.7847L41.5383 57.6448L56.3964 21.7847H26.627ZM35.7868 27.4908H47.2366L41.5383 42.1497L35.7868 27.4908Z" fill="#00D1FF"/>
<path d="M83.006 56.2182L72.8876 41.2642C76.5089 40.3296 81.0888 37.9193 81.0888 31.8196C81.0888 21.7847 68.6272 21.7847 68.6272 21.7847H56.2188V27.54L62.1301 36.1484H56.2188V56.2182H62.4496V41.8545H66.0177L75.7101 56.2182H83.006ZM63.6212 27.54H68.6272C68.6272 27.54 74.858 27.54 74.858 31.8196C74.858 35.2138 71.0769 35.9516 69.426 36.0992L63.6212 27.54Z" fill="#00D1FF"/>
<path d="M102.154 49.3983L100.157 47.5536C101.248 46.1517 101.861 44.184 101.861 42.3394C101.861 37.5925 98.0798 33.485 92.5413 33.485C86.7632 33.485 83.2217 37.5925 83.2217 42.3394C83.2217 47.1109 86.9229 51.1937 92.5413 51.1937C94.565 51.1937 96.4555 50.6034 97.9733 49.595L99.9704 51.4151L102.154 49.3983ZM92.5413 48.3407C88.7868 48.3407 86.3371 45.5122 86.3371 42.3394C86.3371 39.1666 88.6271 36.3627 92.5413 36.3627C96.6153 36.3627 98.7721 39.1666 98.7721 42.3394C98.7721 43.397 98.4526 44.6268 97.9201 45.463L95.9496 43.6429L93.7395 45.6844L95.7366 47.5044C94.8046 48.0209 93.5532 48.3407 92.5413 48.3407Z" fill="#00D1FF"/>
<path d="M113.022 51.1937C116.989 51.1937 120.025 49.1031 120.025 45.4384V33.731H116.909V45.4384C116.909 47.3568 114.966 48.3161 113.022 48.3161C111.051 48.3161 109.321 47.4306 109.161 45.4384V33.731H106.045V45.4384C106.045 48.9801 109.187 51.1937 113.022 51.1937Z" fill="#00D1FF"/>
<path d="M136.79 36.6087V33.731H124.355V50.9478H136.79V48.0701H127.47V43.7659H135.219V40.9128H127.47V36.6087H136.79Z" fill="#00D1FF"/>
<path d="M145.308 51.1937C148.317 51.1937 151.113 49.4229 151.113 46.1271C151.113 44.0857 150.047 42.3394 148.077 41.5031C146.746 40.9374 145.441 40.9374 145.308 40.9374C143.923 40.9374 142.592 40.175 142.592 38.7485C142.592 37.1497 143.843 36.3627 145.308 36.3627C146.719 36.3627 147.917 37.0022 147.97 38.4287H151.059C151.006 35.5019 148.53 33.485 145.308 33.485C142.299 33.485 139.476 35.4773 139.476 38.7485C139.476 40.7899 140.568 42.3148 142.512 43.151C143.87 43.7167 145.148 43.7167 145.308 43.7167C146.559 43.7659 148.024 44.6759 148.024 46.1271C148.024 47.4798 146.746 48.3161 145.308 48.3161C143.923 48.3161 142.645 47.6028 142.592 46.1763H139.476C139.53 49.3983 142.086 51.1199 145.308 51.1937Z" fill="#00D1FF"/>
<path d="M164.079 33.731H153.162V36.3627H157.076V50.9478H160.165V36.3627H164.079V33.731Z" fill="#00D1FF"/>
</svg>
