<svg width="10" height="4" viewBox="0 0 10 4" fill="none" xmlns="http://www.w3.org/2000/svg">
<path fill-rule="evenodd" clip-rule="evenodd" d="M5.23757 3.82827C5.36282 3.92311 5.56589 3.92311 5.69114 3.82827L9.77322 0.737116C9.89847 0.642272 9.89847 0.488499 9.77322 0.393655V0.393655C9.64797 0.29881 9.4449 0.29881 9.31965 0.393655L5.23757 3.48481C5.11232 3.57965 5.11232 3.73342 5.23757 3.82827V3.82827Z" fill="white"/>
<path fill-rule="evenodd" clip-rule="evenodd" d="M5.69114 3.82827C5.56589 3.92311 5.36282 3.92311 5.23757 3.82827L1.15549 0.737116C1.03024 0.642272 1.03024 0.488499 1.15549 0.393655V0.393655C1.28074 0.29881 1.48381 0.29881 1.60906 0.393655L5.69114 3.48481C5.81639 3.57965 5.81639 3.73342 5.69114 3.82827V3.82827Z" fill="white"/>
</svg>
