<svg width="38" height="50" viewBox="0 0 38 50" fill="none" xmlns="http://www.w3.org/2000/svg">
<path d="M18.75 0C8.4125 0 0 8.47083 0 18.8854C0 33.6833 16.9875 48.9625 17.7104 49.6042C18.0083 49.8687 18.3792 50 18.75 50C19.1208 50 19.4917 49.8687 19.7896 49.6062C20.5125 48.9625 37.5 33.6833 37.5 18.8854C37.5 8.47083 29.0875 0 18.75 0ZM18.75 29.1667C13.0062 29.1667 8.33333 24.4937 8.33333 18.75C8.33333 13.0062 13.0062 8.33333 18.75 8.33333C24.4937 8.33333 29.1667 13.0062 29.1667 18.75C29.1667 24.4937 24.4937 29.1667 18.75 29.1667Z" fill="black"/>
</svg>
